<svg width="32" height="32" viewBox="0 0 24 24" fill="none" xmlns="http://www.w3.org/2000/svg">
<path d="M13.4754 10.6182V12.4151C13.003 12.4388 12.5089 12.4518 12.0001 12.4518C11.4474 12.4518 10.9124 12.4367 10.4035 12.4083V10.9736H10.4032V10.6237C7.5798 10.7596 5.48975 11.2478 5.48975 11.8293C5.48975 12.5162 8.40454 13.0727 12.0002 13.0727C15.5957 13.0727 18.5107 12.5162 18.5107 11.8293C18.5106 11.2392 16.3602 10.7457 13.4754 10.6182Z" fill="#26A17B"/>
<path d="M12.0001 0C5.37271 0 0 5.3724 0 11.9999C0 18.6272 5.37271 24.0001 12.0001 24.0001C18.6274 24.0001 24 18.6272 24 11.9999C24 5.3724 18.6273 0 12.0001 0ZM13.4751 14.0373V19.3305H10.403V14.0301C7.11427 13.8398 4.65412 13.0749 4.65412 12.1596C4.65412 11.2446 7.11427 10.4798 10.403 10.2892V8.80597H6.22063V5.73391H17.6579V8.80597H13.4751L13.4753 10.2821C16.8253 10.4603 19.3462 11.2334 19.3462 12.1596C19.3461 13.0861 16.8253 13.8593 13.4751 14.0373Z" fill="#26A17B"/>
</svg>
